<?xml version="1.0" encoding="UTF-8" standalone="no"?>
<svg
   xmlns:dc="http://purl.org/dc/elements/1.1/"
   xmlns:cc="http://creativecommons.org/ns#"
   xmlns:rdf="http://www.w3.org/1999/02/22-rdf-syntax-ns#"
   xmlns:svg="http://www.w3.org/2000/svg"
   xmlns="http://www.w3.org/2000/svg"
   xmlns:sodipodi="http://sodipodi.sourceforge.net/DTD/sodipodi-0.dtd"
   xmlns:inkscape="http://www.inkscape.org/namespaces/inkscape"
   sodipodi:docname="logo.svg"
   inkscape:version="1.0beta2 (2b71d25, 2019-12-03)"
   id="svg8"
   version="1.1"
   viewBox="0 0 52.916666 52.916666"
   height="200"
   width="200">
  <defs
     id="defs2" />
  <sodipodi:namedview
     inkscape:window-maximized="0"
     inkscape:window-y="23"
     inkscape:window-x="0"
     inkscape:window-height="693"
     inkscape:window-width="1280"
     units="px"
     showgrid="false"
     inkscape:document-rotation="0"
     inkscape:current-layer="layer1"
     inkscape:document-units="px"
     inkscape:cy="94.791228"
     inkscape:cx="204.36559"
     inkscape:zoom="1.4"
     inkscape:pageshadow="2"
     inkscape:pageopacity="0.0"
     borderopacity="1.0"
     bordercolor="#666666"
     pagecolor="#ffffff"
     id="base" />
  <metadata
     id="metadata5">
    <rdf:RDF>
      <cc:Work
         rdf:about="">
        <dc:format>image/svg+xml</dc:format>
        <dc:type
           rdf:resource="http://purl.org/dc/dcmitype/StillImage" />
        <dc:title></dc:title>
      </cc:Work>
    </rdf:RDF>
  </metadata>
  <g
     id="layer1"
     inkscape:groupmode="layer"
     inkscape:label="Layer 1">
    <g
       transform="matrix(0.26458333,0,0,0.26458333,-110.82161,75.142759)"
       id="g1352">
</g>
    <g
       transform="matrix(0.26458333,0,0,0.26458333,-110.82161,75.142759)"
       id="g1354">
</g>
    <g
       transform="matrix(0.26458333,0,0,0.26458333,-110.82161,75.142759)"
       id="g1356">
</g>
    <g
       transform="matrix(0.26458333,0,0,0.26458333,-110.82161,75.142759)"
       id="g1358">
</g>
    <g
       transform="matrix(0.26458333,0,0,0.26458333,-110.82161,75.142759)"
       id="g1360">
</g>
    <g
       transform="matrix(0.26458333,0,0,0.26458333,-110.82161,75.142759)"
       id="g1362">
</g>
    <g
       transform="matrix(0.26458333,0,0,0.26458333,-110.82161,75.142759)"
       id="g1364">
</g>
    <g
       transform="matrix(0.26458333,0,0,0.26458333,-110.82161,75.142759)"
       id="g1366">
</g>
    <g
       transform="matrix(0.26458333,0,0,0.26458333,-110.82161,75.142759)"
       id="g1368">
</g>
    <g
       transform="matrix(0.26458333,0,0,0.26458333,-110.82161,75.142759)"
       id="g1370">
</g>
    <g
       transform="matrix(0.26458333,0,0,0.26458333,-110.82161,75.142759)"
       id="g1372">
</g>
    <g
       transform="matrix(0.26458333,0,0,0.26458333,-110.82161,75.142759)"
       id="g1374">
</g>
    <g
       transform="matrix(0.26458333,0,0,0.26458333,-110.82161,75.142759)"
       id="g1376">
</g>
    <g
       transform="matrix(0.26458333,0,0,0.26458333,-110.82161,75.142759)"
       id="g1378">
</g>
    <g
       transform="matrix(0.26458333,0,0,0.26458333,-110.82161,75.142759)"
       id="g1380">
</g>
    <g
       transform="matrix(0.11102883,0,0,0.11102883,80.195492,-5.6001283)"
       id="g1565">
</g>
    <g
       transform="matrix(0.11102883,0,0,0.11102883,80.195492,-5.6001283)"
       id="g1567">
</g>
    <g
       transform="matrix(0.11102883,0,0,0.11102883,80.195492,-5.6001283)"
       id="g1569">
</g>
    <g
       transform="matrix(0.11102883,0,0,0.11102883,80.195492,-5.6001283)"
       id="g1571">
</g>
    <g
       transform="matrix(0.11102883,0,0,0.11102883,80.195492,-5.6001283)"
       id="g1573">
</g>
    <g
       transform="matrix(0.11102883,0,0,0.11102883,80.195492,-5.6001283)"
       id="g1575">
</g>
    <g
       transform="matrix(0.11102883,0,0,0.11102883,80.195492,-5.6001283)"
       id="g1577">
</g>
    <g
       transform="matrix(0.11102883,0,0,0.11102883,80.195492,-5.6001283)"
       id="g1579">
</g>
    <g
       transform="matrix(0.11102883,0,0,0.11102883,80.195492,-5.6001283)"
       id="g1581">
</g>
    <g
       transform="matrix(0.11102883,0,0,0.11102883,80.195492,-5.6001283)"
       id="g1583">
</g>
    <g
       transform="matrix(0.11102883,0,0,0.11102883,80.195492,-5.6001283)"
       id="g1585">
</g>
    <g
       transform="matrix(0.11102883,0,0,0.11102883,80.195492,-5.6001283)"
       id="g1587">
</g>
    <g
       transform="matrix(0.11102883,0,0,0.11102883,80.195492,-5.6001283)"
       id="g1589">
</g>
    <g
       transform="matrix(0.11102883,0,0,0.11102883,80.195492,-5.6001283)"
       id="g1591">
</g>
    <g
       transform="matrix(0.11102883,0,0,0.11102883,80.195492,-5.6001283)"
       id="g1593">
</g>
    <g
       transform="translate(0.06423032,-1.7340821)"
       id="g1973">
      <g
         id="g1951"
         transform="translate(-0.37797619,-3.96875)">
        <g
           transform="matrix(0.09331006,0,0,0.09331006,1.8153642,7.8623043)"
           id="g1280">
	<polygon
   id="polygon1274"
   points="33.749,365.273 69.209,329.962 85.955,313.375 139.15,260.41 93.388,260.683 86.405,264.091 81.418,222.575 94.165,216.289 156.876,216.837 190.888,216.289 263.266,251.582 307.589,269.237 320.725,259.421 329.755,304.548 316.452,313.375 254.394,304.548 165.739,401.651 149.002,418.238 113.541,453.548 103.601,463.444 79.44,434.534 86.944,427.066 122.404,391.755 95.807,365.273 60.346,391.755 48.844,403.214 23.809,375.168 "
   style="fill:#d9d9d9" />

	<ellipse
   id="ellipse1276"
   ry="105.93"
   rx="106.37"
   cy="145.64999"
   cx="236.67"
   style="fill:#d9d9d9" />

	<path
   id="path1278"
   d="M 226.561,154.479 257.943,50.313 260.9,42.589 c -7.795,-1.81 -15.881,-2.869 -24.232,-2.869 -58.756,0 -106.381,47.431 -106.381,105.931 0,58.5 47.634,105.931 106.381,105.931 39.018,0 73.039,-20.983 91.551,-52.171 l -1.907,-0.794 z"
   style="fill:#d9d9d9"
   inkscape:connector-curvature="0" />

</g>
        <path
           id="path1326"
           d="m 26.159958,11.836286 -0.275918,0.720727 -2.928256,9.719736 9.307864,4.11852 0.177943,0.07409 c 0.873942,-1.471969 1.383788,-3.182807 1.383788,-5.016348 0,-4.683607 -3.27425,-8.596937 -7.665421,-9.616723 z"
           style="fill:#4799cf;stroke-width:0.0933099"
           inkscape:connector-curvature="0" />
        <ellipse
           id="ellipse1324"
           ry="2.0593529"
           rx="2.0686839"
           cy="22.688339"
           cx="22.749475"
           style="fill:#666666;stroke-width:0.0933099" />
        <polygon
           transform="matrix(0.09331006,0,0,0.09331006,1.8153642,7.8623043)"
           id="polygon1328"
           points="307.589,269.237 343.05,242.755 356.07,232.779 381.979,266.51 369.647,278.065 316.452,313.375 "
           style="fill:#ff6c37;fill-opacity:1" />
        <path
           id="path1330"
           d="m 33.825379,30.513788 2.481861,3.294776 1.96371,-1.840168 c 0.715781,-0.670525 0.814596,-1.769343 0.229822,-2.555947 v 0 C 37.854973,28.54429 36.619455,28.372135 35.75951,29.031091 Z"
           style="fill:#b9b9b9;stroke-width:0.0933099"
           inkscape:connector-curvature="0" />
        <polygon
           transform="matrix(0.09331006,0,0,0.09331006,1.8153642,7.8623043)"
           id="polygon1332"
           points="92.991,260.692 53.637,281.004 44.13,286.063 28.302,248.643 40.555,242.755 94.165,216.289 "
           style="fill:#ff6c37;fill-opacity:1" />
        <g
           transform="matrix(0.09331006,0,0,0.09331006,1.8153642,7.8623043)"
           id="g1340">
	<path
   id="path1334"
   d="M 53.637,281.004 40.555,242.754 9.226,257.823 c -8.757,5.835 -11.741,17.267 -6.947,26.615 v 0 c 5.288,10.311 18.044,14.292 28.301,8.836 z"
   style="fill:#b9b9b9"
   inkscape:connector-curvature="0" />

	<path
   id="path1336"
   d="m 33.749,365.273 -22.166,22.069 c -7.345,7.309 -7.345,19.174 0,26.483 v 0 c 7.345,7.309 19.253,7.309 26.598,0 l 22.166,-22.069 z"
   style="fill:#b9b9b9"
   inkscape:connector-curvature="0" />

	<path
   id="path1338"
   d="m 86.944,427.066 26.598,26.483 -22.166,22.069 c -7.345,7.309 -19.253,7.309 -26.598,0 v 0 c -7.345,-7.309 -7.345,-19.174 0,-26.483 z"
   style="fill:#b9b9b9"
   inkscape:connector-curvature="0" />

</g>
        <polygon
           transform="matrix(0.09331006,0,0,0.09331006,1.8153642,7.8623043)"
           id="polygon1342"
           points="174.61,339.858 210.071,304.548 174.61,269.237 139.15,304.548 "
           style="fill:#666666" />
        <g
           transform="matrix(0.09331006,0,0,0.09331006,1.8153642,7.8623043)"
           id="g1348">
	<path
   id="path1344"
   d="M 317.405,127.996 H 299.75 c 0,-28.089 -27.586,-35.275 -28.76,-35.566 l 4.255,-17.134 c 14.592,3.619 42.16,19.314 42.16,52.7 z"
   style="fill:#b3e4e8"
   inkscape:connector-curvature="0" />

	<rect
   id="rect1346"
   height="17.655001"
   width="17.655001"
   style="fill:#b3e4e8"
   y="145.64999"
   x="299.75" />

</g>
        <polygon
           transform="matrix(0.09331006,0,0,0.09331006,1.8153642,7.8623043)"
           id="polygon1350"
           points="86.158,313.163 79.767,319.669 160.151,398.703 164.167,403.214 165.739,401.651 176.199,390.193 172.924,386.529 92.214,307.143 "
           style="fill:#ff6c37;fill-opacity:1" />
      </g>
      <path
         id="path1920"
         d="M 49.719842,8.3116812 A 1.6312164,1.6312164 0 0 0 48.258968,10.66782 l -3.554055,3.554057 a 1.6317676,1.6317676 0 1 0 0.735949,0.7365 l 3.554057,-3.554056 a 1.6312164,1.6312164 0 1 0 0.725473,-3.0926398 z m -5.739301,1.5132424 c -0.03969,0 -0.07884,0.0016 -0.117971,0.0023 -0.03969,0.0011 -0.07884,0.0011 -0.118533,0.0027 -0.246419,0.01 -0.492287,0.03527 -0.73595,0.07607 l -0.01646,0.0027 -0.10199,0.01813 -0.05788,0.01104 a 4.2547235,4.2547235 0 0 0 -0.159308,0.03417 l -0.01771,0.0043 a 5.8931066,5.8931066 0 0 0 -1.405734,0.5237094 l -0.08544,0.04907 c -0.03473,0.01875 -0.06891,0.03859 -0.103093,0.05788 -0.02535,0.0148 -0.05128,0.02811 -0.07717,0.04354 h -5.37e-4 l -0.0056,0.0027 -0.0198,0.01104 v 0.0011 l 0.06119,0.101428 1.736508,2.883157 a 2.2977052,2.2977052 0 0 1 0.209503,-0.111344 2.3671656,2.3671656 0 0 1 0.897471,-0.227676 c 0.03913,-0.0023 0.07884,-0.0044 0.11797,-0.0044 z m 0.235943,0.0054 v 3.4912144 c 0.179165,0.01876 0.356674,0.05678 0.529222,0.11522 l 2.568934,-2.56893 c -0.09537,-0.06615 -0.191833,-0.130656 -0.291073,-0.191288 l -0.01438,-0.0083 c -0.03088,-0.01938 -0.06173,-0.03694 -0.09261,-0.05513 l -0.05403,-0.03088 -0.05457,-0.03032 a 7.0204596,7.0204596 0 0 0 -0.09426,-0.05072 l -0.0148,-0.0077 a 5.8589277,5.8589277 0 0 0 -0.78556,-0.340142 C 45.532978,10.020501 45.13992,9.9273266 44.740247,9.8749546 l -0.04906,-0.0067 -0.04961,-0.0054 a 3.6163497,3.6163497 0 0 0 -0.09372,-0.01042 l -0.02701,-0.0023 -0.11247,-0.0094 a 3.5501968,3.5501968 0 0 0 -0.140574,-0.0083 c -0.01709,-0.0016 -0.03417,-0.0016 -0.05128,-0.0023 z m -3.458686,0.9608724 a 5.4686261,5.4686261 0 0 0 -0.749731,0.585452 l 2.459228,2.459227 0.01001,0.01001 c 0.027,-0.02204 0.05403,-0.043 0.08213,-0.06394 l -0.006,-0.01001 z m -0.920625,0.749735 c -0.02756,0.02756 -0.05403,0.05678 -0.08103,0.0849 l -0.08213,0.08544 c -0.181912,0.196813 -0.3473,0.40243 -0.497247,0.616323 l -0.0215,0.03087 a 5.8368769,5.8368769 0 0 0 -0.119079,0.179707 5.8434921,5.8434921 0 0 0 -0.909602,2.908515 l -0.0033,0.118535 -0.0016,0.11797 h 3.482391 c 0,-0.03969 0.004,-0.07884 0.0056,-0.11797 0.0027,-0.03969 0.0033,-0.07938 0.0071,-0.118535 0.04465,-0.453145 0.219958,-0.895818 0.524811,-1.267925 0.02481,-0.03032 0.05293,-0.05844 0.07938,-0.0882 0.02646,-0.02867 0.05128,-0.05898 0.07938,-0.0871 z m 8.960939,0.807063 -2.570584,2.570585 c 0.05844,0.171997 0.09647,0.349507 0.115761,0.52867 h 3.490662 l -0.0023,-0.05182 a 6.383188,6.383188 0 0 0 -0.01769,-0.251379 l -0.0026,-0.02867 a 7.1908029,7.1908029 0 0 0 -0.01438,-0.132868 v -0.005 l -0.01811,-0.132306 v -0.005 a 5.8534153,5.8534153 0 0 0 -0.180244,-0.822973 l -0.0016,-0.0054 a 8.7316104,8.7316104 0 0 0 -0.03859,-0.125701 l -0.0054,-0.01646 a 7.7790114,7.7790114 0 0 0 -0.03804,-0.11247 l -0.01103,-0.03032 a 3.1146915,3.1146915 0 0 0 -0.08434,-0.223265 4.3219792,4.3219792 0 0 0 -0.05128,-0.125139 9.1897179,9.1897179 0 0 0 -0.03473,-0.07938 l -0.02043,-0.04465 a 7.5943349,7.5943349 0 0 0 -0.04411,-0.09426 l -0.01313,-0.02867 -0.05293,-0.106949 -0.0078,-0.01479 a 6.1742556,6.1742556 0 0 0 -0.06173,-0.116866 l -0.0023,-0.0044 A 5.851761,5.851761 0 0 0 48.798333,12.34824 Z m -2.442138,3.335211 c 0,0.03915 -0.0033,0.07828 -0.0056,0.117971 -0.0016,0.03969 -0.0027,0.07884 -0.0067,0.117971 a 2.3649605,2.3649605 0 0 1 -0.524792,1.268478 c -0.02481,0.03032 -0.05292,0.05898 -0.07938,0.0882 -0.02646,0.02922 -0.05128,0.05955 -0.07938,0.08766 l 2.462536,2.462536 c 0.02812,-0.02811 0.05457,-0.05734 0.08159,-0.08544 0.02756,-0.02867 0.05513,-0.05678 0.08159,-0.08544 0.182475,-0.197353 0.348954,-0.404083 0.4989,-0.618529 l 0.01769,-0.02535 0.05403,-0.07938 0.04686,-0.07168 0.02203,-0.03473 a 5.841838,5.841838 0 0 0 0.907941,-2.90631 c 0.0016,-0.03915 0.0023,-0.07884 0.0033,-0.117971 6.34e-4,-0.03915 0.0023,-0.07884 0.0023,-0.11797 z m -8.228848,0.235946 0.0023,0.05128 0.0054,0.09868 0.0027,0.0419 0.0094,0.113553 0.0027,0.02535 c 0.004,0.0419 0.0083,0.08434 0.01312,0.125679 l 0.0016,0.01208 a 5.2949755,5.2949755 0 0 0 0.01813,0.136722 c 0.03969,0.278392 0.100324,0.554029 0.180269,0.825255 l 0.0011,0.0033 c 0.01209,0.04244 0.02589,0.0849 0.03913,0.126784 l 0.0023,0.0077 0.0027,0.0077 a 8.6753808,8.6753808 0 0 0 0.08434,0.242009 l 0.01646,0.0441 0.03253,0.08159 a 4.2459033,4.2459033 0 0 0 0.05128,0.125679 l 0.03417,0.07717 0.02094,0.0463 0.043,0.09318 0.01479,0.02978 a 5.88594,5.88594 0 0 0 0.124034,0.243111 l 0.01375,0.02371 2.981284,-1.796046 0.01104,-0.0067 a 2.378191,2.378191 0 0 1 -0.21775,-0.779479 h -0.01375 z m 0.278391,1.568922 -0.113554,0.03198 0.0011,0.0027 z m 3.541929,-0.57994 -2.985142,1.798252 c 0.04575,0.07663 0.09372,0.150496 0.142786,0.223818 l 0.0044,0.0077 0.0023,0.0027 0.0044,0.0077 h 5.36e-4 c 0.004,0.0067 0.0077,0.01208 0.01209,0.01771 l 5.36e-4,0.0011 v 5.36e-4 a 5.8622356,5.8622356 0 0 0 0.164289,0.229881 l 0.0033,0.0044 a 5.4923311,5.4923311 0 0 0 0.159871,0.202875 l 0.01813,0.02204 c 0.02371,0.02867 0.04741,0.05678 0.07168,0.08434 l 0.03142,0.03584 0.06173,0.07001 0.03527,0.03805 0.01604,0.01709 0.04575,0.04961 0.01938,0.01938 c 0.02701,0.02811 0.05403,0.05678 0.08213,0.08434 l 2.461986,-2.46197 a 2.1279132,2.1279132 0 0 1 -0.157101,-0.176937 2.4377285,2.4377285 0 0 1 -0.19625,-0.278392 z m 3.536967,0.612464 c -0.02756,0.02204 -0.05513,0.04354 -0.08269,0.06394 l 0.006,0.01001 1.795497,2.980733 c 0.08323,-0.05457 0.165368,-0.110262 0.245866,-0.169248 0.173643,-0.127888 0.34179,-0.266815 0.503864,-0.416762 l -2.458678,-2.458671 z m -3.008296,0.0016 -0.0083,0.0083 -2.458678,2.458677 a 4.9427121,4.9427121 0 0 0 0.10749,0.09703 c 0.01208,0.01104 0.02371,0.02204 0.03584,0.03199 l 0.0838,0.07168 a 5.8556199,5.8556199 0 0 0 0.118514,0.09593 l 0.01271,0.0094 0.105282,0.08159 0.0044,0.0027 c 0.147744,0.110262 0.301546,0.214445 0.459762,0.310919 l 0.01646,0.01001 0.09041,0.05347 0.05567,0.03143 a 3.0088472,3.0088472 0 0 0 0.148849,0.08159 c 0.0044,0.0023 0.0088,0.0054 0.01375,0.0071 0.0893,0.04686 0.180268,0.09041 0.271776,0.132305 l 0.0871,-0.212241 1.236507,-3.003335 0.005,-0.01104 a 2.3859089,2.3859089 0 0 1 -0.386457,-0.257419 z m 2.729352,0.194603 c -0.03363,0.02042 -0.06837,0.03859 -0.103094,0.05734 a 2.3803961,2.3803961 0 0 1 -1.803214,0.185227 c -0.03805,-0.01104 -0.07443,-0.02592 -0.111907,-0.03915 -0.03694,-0.01334 -0.07497,-0.02425 -0.111366,-0.03969 l -1.235954,3.001129 -0.0485,0.11743 -0.04134,0.100885 v 5.37e-4 l 0.0094,0.0038 a 0.07552439,0.07552439 0 0 0 0.01042,0.0038 l 0.0027,0.0016 c 0.02867,0.01168 0.05845,0.02204 0.08765,0.03307 0.03694,0.01479 0.07332,0.02922 0.110262,0.04244 l 0.05624,0.02204 c 0.386992,0.13616 0.788319,0.231534 1.19516,0.285558 l 0.04796,0.0067 0.04961,0.0056 0.09482,0.01042 a 3.95428,3.95428 0 0 0 0.13891,0.01208 c 0.01271,5.36e-4 0.02646,5.36e-4 0.03915,0.0016 l 0.101427,0.006 0.06173,0.0027 a 3.8919862,3.8919862 0 0 0 0.197354,0.0038 h 0.02756 a 5.8804275,5.8804275 0 0 0 0.988439,-0.08265 l 0.101989,-0.01876 0.05788,-0.01104 0.06009,-0.01271 0.09922,-0.02204 0.01771,-0.0044 a 5.8897993,5.8897993 0 0 0 1.405734,-0.523692 c 0.02867,-0.01541 0.05734,-0.03309 0.08601,-0.04906 0.03473,-0.01876 0.06891,-0.03859 0.103094,-0.05788 0.02371,-0.01313 0.04796,-0.02592 0.07168,-0.04023 h 6.33e-4 l 9.93e-4,-0.0011 9.92e-4,-5.37e-4 9.93e-4,-5.36e-4 0.0038,-0.0023 0.02313,-0.01375 -0.06063,-0.100886 -0.06063,-0.101427 z m 1.798251,2.984591 -0.02316,0.01375 0.02316,-0.01313 z m -0.02757,0.01604 h -6.34e-4 9.92e-4 z m -0.0026,0.0023 h -9.92e-4 z"
         inkscape:connector-curvature="0"
         style="fill:#6ba539;fill-opacity:1;stroke-width:0.551275" />
    </g>
  </g>
</svg>
